<?xml version="1.0" encoding="utf-8"?>
<!-- Generator: Adobe Illustrator 19.1.0, SVG Export Plug-In . SVG Version: 6.00 Build 0)  -->
<svg version="1.1" id="bflat" xmlns="http://www.w3.org/2000/svg" xmlns:xlink="http://www.w3.org/1999/xlink" x="0px" y="0px"
	 viewBox="0 0 1200 300" style="enable-background:new 0 0 1200 300;" xml:space="preserve">
<g id="barstaff" transform="matrix(1.5,0,0,1,-2.0901338e-6,200)">
	<rect id="rect4030" x="790" y="-140.1" width="10" height="179.1"/>
	<rect x="781.6" y="-138.9" width="2.2" height="176.8"/>
	<rect y="-138.9" width="800" height="2.2"/>
	<rect y="37.9" width="800" height="2.2"/>
	<rect y="-94.7" width="800" height="2.2"/>
	<rect y="-6.3" width="800" height="2.2"/>
	<rect y="-50.5" width="800" height="2.2"/>
</g>
<path id="gclef" d="M73.3,166.4c-4.6,0.9-8.8,3.5-12.9,7.5c-4.1,4.1-6.2,8.7-6.6,13.9c-0.2,3.2,0.6,7,2.5,11c1.9,4.1,4.9,7.2,9,9.3
	c1.4,0.4,2,1.2,1.9,2.2c0,0.4-0.6,0.7-1.8,0.9c-6.6-2.2-11.9-6.1-15.8-11.8s-5.7-12.1-5.3-19.1c0.7-7.5,3.5-14.4,8.3-20.6
	c4.9-6.2,10.9-10.5,18-12.7l-3.3-26.4c-12,8.6-21.9,17.8-29.7,27.5c-7.8,9.7-12.3,20.6-13.4,32.5c-0.2,5.4,0.5,10.7,2.2,15.8
	c1.7,5.2,4.5,10,8.3,14.4c7.7,8.9,18.3,14,31.4,15.3c4.5,0,9.4-0.5,14.6-1.4L73.3,166.4z M78.7,166.1l7.6,57.3
	c11.7-3.8,18-13.3,19-28.4c-0.3-5.1-1.5-9.8-3.7-14c-2.1-4.3-5.2-7.7-9.1-10.4S84,166.4,78.7,166.1z M68.8,88.6
	c2.5-1.3,5.5-3.7,8.8-7.1c3.3-3.3,6.5-7.3,9.6-11.8c3.2-4.6,5.8-9.3,7.9-14.1c2-4.7,3.2-9.3,3.5-13.6c0.1-1.8,0.1-3.7-0.2-5.3
	c-0.1-2.7-0.8-4.8-2.1-6.3c-1.3-1.4-3-2.3-5.2-2.4c-4.4-0.3-8.6,2.1-12.5,7.3c-3,4.5-5.7,9.9-7.8,16.1c-2.1,6.3-3.5,12.5-4.1,18.9
	C66.6,77.8,67.3,83.8,68.8,88.6z M63.9,92.6c-2.5-12.1-3.5-24.4-3-36.7c0.6-7.9,1.9-15.3,4-22.1c1.9-6.8,4.5-12.6,7.6-17.6
	s6.5-8.6,10.2-11c3.4-2.2,5.7-3.3,7-3.2c1,0.1,1.7,0.5,2.4,1.2s1.6,1.9,2.6,3.4c7.9,13,11.3,28.3,10.1,45.8
	c-0.6,8.3-2.2,16.3-5,24.2c-2.7,7.9-6.4,15.3-11.1,22.1c-4.8,6.9-10.2,12.8-16.4,17.8l4,29.3c3.3-0.1,5.5-0.3,6.7-0.2
	c5.6,0.4,10.5,1.9,15,4.6c4.5,2.7,8.2,6.1,11.2,10.4c3,4.2,5.2,8.9,6.6,14.2c1.3,5.3,1.9,10.7,1.5,16.3c-0.6,8.7-3.4,16.4-8.5,23.3
	c-5.1,6.8-12.3,11.6-21.7,14.3c0.3,3.6,1,8.9,2.1,15.7c1,6.9,1.7,12.3,2.2,16.3s0.5,7.9,0.2,11.6c-0.4,5.8-2.2,10.8-5.3,15.2
	c-3.2,4.4-7.3,7.6-12.3,9.8c-5,2.2-10.3,3-16.1,2.7c-8.1-0.6-15-3.3-20.7-8.2c-5.7-5-8.5-11.3-8.3-19.1c0.5-3.4,1.5-6.6,3.2-9.6
	s3.8-5.3,6.6-7.1c2.6-1.8,5.7-2.6,9.2-2.6c2.9,0.2,5.5,1.2,8,2.9c2.4,1.8,4.3,4.1,5.7,6.9c1.3,2.8,1.9,5.9,1.7,9.1
	c-0.3,4.3-2,7.9-5.2,10.7c-3.2,2.8-7,4.1-11.5,3.8l-1.7-0.1c2.6,4.6,7.1,7.2,13.7,7.7c3.3,0.2,6.8-0.3,10.2-1.4
	c3.6-1.2,6.6-2.8,9.1-5c2.6-2.2,4.4-4.6,5.2-7.2c1.5-2.9,2.3-7.1,2.7-12.3c0.2-3.5,0.1-7.1-0.3-10.6s-1.1-8.2-2.1-14
	s-1.7-10.2-2.1-13.3c-4.5,0.8-9.1,1.1-13.9,0.7c-8-0.6-15.5-2.7-22.4-6.5s-12.9-8.8-17.9-15s-8.7-13.1-11.2-20.8
	c-2.4-7.6-3.4-15.5-3-23.6c0.8-7.5,2.7-14.6,5.8-21.1c3.1-6.6,7-12.9,11.6-18.6c4.6-5.7,9.3-10.9,14.2-15.6
	C49.5,105.5,55.9,99.6,63.9,92.6z"/>
<g id="flatb" transform="matrix(23.877746,0,0,23.877746,344.86616,349.10588)">
	<g id="flatb1" transform="translate(-94.947,-433.75)">
		<path id="flatb11" d="M86.7,425.7c-0.2,0.3-0.4,0.5-0.7,0.7v-1c0.1-0.1,0.1-0.3,0.3-0.4c0.1-0.1,0.2-0.1,0.3-0.1
			C87.2,425,87,425.4,86.7,425.7z M86,424.9v-2.7h-0.2v4.3c0,0.1,0,0.2,0.1,0.2c0,0,0.1,0,0.2-0.1c0.5-0.3,0.9-0.6,1.2-1
			c0.1-0.1,0.2-0.5,0-0.7c-0.1-0.1-0.3-0.3-0.5-0.3C86.5,424.5,86.3,424.7,86,424.9z"/>
	</g>
</g>
<g id="flate" transform="matrix(23.877746,0,0,23.877746,344.86616,349.10588)">
	<g id="flate1" transform="translate(-94.947,-433.75)">
		<path id="flate11" d="M88.3,422.8c-0.2,0.3-0.4,0.5-0.7,0.7v-1c0.1-0.1,0.1-0.3,0.3-0.4c0.1-0.1,0.2-0.1,0.3-0.1
			C88.8,422.1,88.6,422.5,88.3,422.8z M87.6,422v-2.7h-0.2v4.3c0,0.1,0,0.2,0.1,0.2c0,0,0.1,0,0.2-0.1c0.5-0.3,0.9-0.6,1.2-1
			c0.1-0.1,0.2-0.5,0-0.7c-0.1-0.1-0.3-0.3-0.5-0.3C88.1,421.6,87.9,421.8,87.6,422z"/>
	</g>
</g>
</svg>
