<svg xmlns="http://www.w3.org/2000/svg" viewBox="26 24 50 62.5" x="0px" y="0px"><rect x="44" y="48" width="2" height="2"/><rect x="44" y="40" width="2" height="2"/><rect x="44" y="28" width="2" height="2"/><rect x="44" y="44" width="2" height="2"/><rect x="66" y="54" width="2" height="2"/><rect x="62" y="54" width="2" height="2"/><rect x="70" y="54" width="2" height="2"/><rect x="46" y="54" width="2" height="2"/><rect x="58" y="54" width="2" height="2"/><rect x="44" y="52" width="2" height="2"/><rect x="54" y="54" width="2" height="2"/><rect x="50" y="54" width="2" height="2"/><rect x="66" y="50" width="2" height="2"/><rect x="54" y="50" width="2" height="2"/><rect x="50" y="50" width="2" height="2"/><rect x="62" y="50" width="2" height="2"/><rect x="58" y="50" width="2" height="2"/><rect x="56" y="52" width="2" height="2"/><rect x="68" y="52" width="2" height="2"/><rect x="46" y="30" width="2" height="2"/><rect x="52" y="52" width="2" height="2"/><rect x="64" y="52" width="2" height="2"/><rect x="60" y="52" width="2" height="2"/><rect x="48" y="52" width="2" height="2"/><rect x="46" y="42" width="2" height="2"/><rect x="46" y="46" width="2" height="2"/><rect x="46" y="50" width="2" height="2"/><polygon points="70 58 70 56 68 56 68 58 66 58 66 56 64 56 64 58 62 58 62 60 64 60 66 60 68 60 70 60 72 60 74 60 76 60 76 58 74 58 74 56 72 56 72 58 "/><rect x="50" y="58" width="2" height="2"/><rect x="58" y="58" width="2" height="2"/><polygon points="38 58 36 58 34 58 32 58 30 58 30 56 28 56 28 58 26 58 26 60 28 60 30 60 32 60 34 60 36 60 38 60 40 60 40 58 "/><rect x="44" y="60" width="2" height="2"/><rect x="38" y="46" width="2" height="2"/><rect x="38" y="42" width="2" height="2"/><polygon points="60 62 60 64 60 66 60 68 60 70 58 70 58 72 60 72 60 74 62 74 62 72 62 70 62 68 62 66 62 64 62 62 62 60 60 60 "/><rect x="48" y="60" width="2" height="2"/><rect x="46" y="58" width="2" height="2"/><rect x="60" y="56" width="2" height="2"/><rect x="42" y="38" width="2" height="2"/><rect x="42" y="42" width="2" height="2"/><rect x="42" y="46" width="2" height="2"/><rect x="48" y="48" width="2" height="2"/><rect x="56" y="56" width="2" height="2"/><rect x="42" y="54" width="2" height="2"/><rect x="48" y="56" width="2" height="2"/><rect x="44" y="56" width="2" height="2"/><rect x="42" y="58" width="2" height="2"/><rect x="40" y="48" width="2" height="2"/><rect x="40" y="56" width="2" height="2"/><polygon points="42 36 42 34 42 32 42 30 42 28 44 28 44 26 42 26 42 24 40 24 40 26 40 28 40 30 40 32 40 34 40 36 40 38 42 38 "/><rect x="40" y="44" width="2" height="2"/><rect x="40" y="40" width="2" height="2"/><rect x="60" y="40" width="2" height="2"/><rect x="58" y="38" width="2" height="2"/><polygon points="60 30 58 30 58 32 60 32 60 34 58 34 58 36 60 36 60 38 62 38 62 36 62 34 62 32 62 30 62 28 62 26 62 24 60 24 60 26 58 26 58 28 60 28 "/><polygon points="64 40 66 40 68 40 70 40 72 40 72 42 74 42 74 40 76 40 76 38 74 38 72 38 70 38 68 38 66 38 64 38 62 38 62 40 "/><rect x="56" y="32" width="2" height="2"/><rect x="56" y="36" width="2" height="2"/><rect x="58" y="42" width="2" height="2"/><rect x="56" y="28" width="2" height="2"/><rect x="70" y="42" width="2" height="2"/><rect x="56" y="40" width="2" height="2"/><rect x="54" y="46" width="2" height="2"/><rect x="50" y="38" width="2" height="2"/><rect x="50" y="34" width="2" height="2"/><rect x="50" y="46" width="2" height="2"/><rect x="64" y="48" width="2" height="2"/><rect x="50" y="42" width="2" height="2"/><rect x="52" y="48" width="2" height="2"/><rect x="60" y="48" width="2" height="2"/><rect x="56" y="48" width="2" height="2"/><rect x="48" y="44" width="2" height="2"/><rect x="48" y="32" width="2" height="2"/><rect x="56" y="44" width="2" height="2"/><rect x="68" y="44" width="2" height="2"/><rect x="54" y="42" width="2" height="2"/><rect x="54" y="30" width="2" height="2"/><rect x="54" y="38" width="2" height="2"/><rect x="54" y="34" width="2" height="2"/><rect x="52" y="40" width="2" height="2"/><rect x="52" y="44" width="2" height="2"/><rect x="52" y="36" width="2" height="2"/><rect x="52" y="32" width="2" height="2"/><rect x="66" y="46" width="2" height="2"/><rect x="44" y="64" width="2" height="2"/><rect x="48" y="64" width="2" height="2"/><rect x="52" y="64" width="2" height="2"/><rect x="34" y="50" width="2" height="2"/><rect x="34" y="46" width="2" height="2"/><rect x="34" y="42" width="2" height="2"/><rect x="46" y="62" width="2" height="2"/><rect x="50" y="62" width="2" height="2"/><rect x="36" y="44" width="2" height="2"/><rect x="36" y="48" width="2" height="2"/><polygon points="42 68 44 68 44 66 42 66 42 64 44 64 44 62 42 62 42 60 40 60 40 62 40 64 40 66 40 68 40 70 40 72 40 74 42 74 42 72 44 72 44 70 42 70 "/><rect x="30" y="42" width="2" height="2"/><rect x="30" y="54" width="2" height="2"/><rect x="44" y="68" width="2" height="2"/><rect x="56" y="68" width="2" height="2"/><polygon points="32 40 32 42 34 42 34 40 36 40 36 42 38 42 38 40 40 40 40 38 38 38 36 38 34 38 32 38 30 38 28 38 26 38 26 40 28 40 28 42 30 42 30 40 "/><rect x="54" y="66" width="2" height="2"/><rect x="46" y="66" width="2" height="2"/><rect x="32" y="52" width="2" height="2"/><rect x="32" y="44" width="2" height="2"/><text x="26" y="89" fill="#000000" font-size="5px" font-weight="bold" font-family="'Helvetica Neue', Helvetica, Arial-Unicode, Arial, Sans-serif">Created by Vicons Design</text><text x="26" y="94" fill="#000000" font-size="5px" font-weight="bold" font-family="'Helvetica Neue', Helvetica, Arial-Unicode, Arial, Sans-serif">from the Noun Project</text></svg>